<svg xmlns="http://www.w3.org/2000/svg" width="396" height="417" viewBox="0 0 396 417" version="1.1"><path d="M 350.500 3.644 C 349.400 3.883, 347.459 4.301, 346.187 4.574 C 344.915 4.846, 341.025 7.721, 337.541 10.962 L 331.207 16.854 349.354 34.331 C 371.280 55.448, 369.473 53.765, 368.616 52.273 C 368.185 51.524, 370.066 48.890, 373.448 45.509 C 384.817 34.139, 384.831 25.859, 373.500 14.496 C 363.883 4.853, 357.915 2.037, 350.500 3.644 M 320.762 13.707 C 322.006 13.946, 323.806 13.937, 324.762 13.687 C 325.718 13.437, 324.700 13.241, 322.500 13.252 C 320.300 13.263, 319.518 13.468, 320.762 13.707 M 144.750 14.706 C 145.988 14.944, 148.012 14.944, 149.250 14.706 C 150.488 14.467, 149.475 14.272, 147 14.272 C 144.525 14.272, 143.512 14.467, 144.750 14.706 M 119.437 25.250 L 116.500 28.500 119.750 25.563 C 121.537 23.948, 123 22.485, 123 22.313 C 123 21.540, 122.175 22.221, 119.437 25.250 M 299.437 29.250 L 296.500 32.500 299.750 29.563 C 301.538 27.948, 303 26.485, 303 26.313 C 303 25.540, 302.175 26.221, 299.437 29.250 M 307.924 38.750 L 305.500 41.500 308.250 39.076 C 309.762 37.742, 311 36.505, 311 36.326 C 311 35.541, 310.190 36.180, 307.924 38.750 M 336.958 40.250 C 341.102 44.665, 342 45.459, 342 44.708 C 342 44.548, 339.863 42.410, 337.250 39.958 L 332.500 35.500 336.958 40.250 M 109.232 52 C 109.232 53.925, 109.438 54.712, 109.689 53.750 C 109.941 52.788, 109.941 51.212, 109.689 50.250 C 109.438 49.288, 109.232 50.075, 109.232 52 M 183.158 52 C 183.158 53.375, 183.385 53.938, 183.662 53.250 C 183.940 52.563, 183.940 51.438, 183.662 50.750 C 183.385 50.063, 183.158 50.625, 183.158 52 M 354.953 57.250 L 357.349 60 354.953 62.750 L 352.556 65.500 355.505 62.750 L 358.455 60 355.505 57.250 L 352.556 54.500 354.953 57.250 M 321 59.500 C 322.866 61.425, 324.617 63, 324.892 63 C 325.167 63, 323.866 61.425, 322 59.500 C 320.134 57.575, 318.383 56, 318.108 56 C 317.833 56, 319.134 57.575, 321 59.500 M 287.940 67.269 C 282.132 72.896, 270.007 84.475, 260.996 93 C 227.244 124.930, 230.051 120.967, 238.377 124.941 C 245.110 128.155, 250.518 133.389, 254.750 140.787 C 255.438 141.989, 256 143.879, 256 144.986 C 256 148.280, 258.134 147.289, 265 140.808 C 275.303 131.083, 306.590 101.191, 317 91.126 L 326.500 81.942 313.500 69.476 C 297.969 54.583, 300.784 54.826, 287.940 67.269 M 270.462 66.250 L 265.500 71.500 270.750 66.538 C 273.637 63.808, 276 61.446, 276 61.288 C 276 60.541, 275.074 61.372, 270.462 66.250 M 382.667 66.667 C 382.300 67.033, 382.007 67.821, 382.015 68.417 C 382.024 69.013, 382.439 68.854, 382.939 68.064 C 383.729 66.817, 384.087 66.817, 385.674 68.064 C 387.346 69.379, 387.384 69.352, 386.128 67.750 C 384.664 65.883, 383.739 65.594, 382.667 66.667 M 109.483 181.500 C 109.483 244.750, 109.603 270.478, 109.750 238.673 C 109.896 206.868, 109.896 155.118, 109.750 123.673 C 109.603 92.228, 109.483 118.250, 109.483 181.500 M 364.453 71.250 L 360.500 75.500 364.750 71.547 C 367.087 69.373, 369 67.460, 369 67.297 C 369 66.540, 368.129 67.298, 364.453 71.250 M 183.489 183 C 183.495 246.525, 183.619 285.542, 183.765 269.704 L 184.031 240.908 186.238 242.454 C 187.452 243.304, 190.145 244, 192.223 244 L 196 244 196 251.453 C 196 260.935, 198.263 267.220, 203.640 272.666 C 211.242 280.367, 207.289 280, 282.701 280 C 319.731 280, 350.809 279.603, 351.764 279.117 C 352.719 278.631, 354.804 277.619, 356.398 276.868 C 361.189 274.612, 365.546 269.464, 367.323 263.962 C 369.935 255.874, 369.869 131.151, 367.250 125.327 C 364.221 118.593, 357.467 112, 353.596 112 C 352.718 112, 352 111.550, 352 111 C 352 109.292, 321.159 109.698, 319.429 111.429 C 313.090 117.767, 319.233 122, 334.772 122 C 355.617 122, 356 122.504, 356 149.965 C 356 165.327, 355.708 169.999, 354.750 169.998 C 287.611 169.877, 258.101 170.598, 256.104 172.405 C 251.469 176.601, 254.416 182, 261.341 182 C 267.430 182, 267.106 179.313, 266.778 227 L 266.500 267.500 243.003 267.769 C 211.589 268.129, 209.977 267.401, 209.195 252.494 L 208.749 244 213.200 244 C 224.204 244, 224.951 232.583, 214 231.775 L 209.500 231.444 209.200 225.722 L 208.900 220 212.200 219.996 C 216.754 219.991, 222.009 216.639, 221.968 213.765 C 221.912 209.772, 219.693 208, 214.747 208 C 209.199 208, 209 207.588, 209 196.109 C 209 187.403, 208.524 185.927, 204.814 183.132 C 203.470 182.119, 202.658 182.112, 200.814 183.094 C 196.622 185.327, 196.065 187.033, 196.032 197.750 L 196 208 191.059 208 C 188.204 208, 185.776 208.528, 185.309 209.250 C 184.864 209.938, 184.270 178.325, 183.989 139 C 183.567 80.083, 183.479 87.826, 183.489 183 M 247.405 88.250 L 245.500 90.500 247.750 88.595 C 248.988 87.547, 250 86.535, 250 86.345 C 250 85.545, 249.195 86.136, 247.405 88.250 M 23.480 183 C 23.480 234.425, 23.601 255.462, 23.750 229.750 C 23.898 204.037, 23.898 161.962, 23.750 136.250 C 23.601 110.537, 23.480 131.575, 23.480 183 M 324.462 101.250 L 319.500 106.500 324.750 101.538 C 327.637 98.808, 330 96.446, 330 96.288 C 330 95.541, 329.074 96.372, 324.462 101.250 M 225.946 108.750 L 222.500 112.500 226.250 109.054 C 228.313 107.158, 230 105.471, 230 105.304 C 230 104.540, 229.154 105.260, 225.946 108.750 M 300.946 123.750 L 297.500 127.500 301.250 124.054 C 303.313 122.158, 305 120.471, 305 120.304 C 305 119.540, 304.154 120.260, 300.946 123.750 M 210.405 123.250 L 208.500 125.500 210.750 123.595 C 212.864 121.805, 213.455 121, 212.655 121 C 212.465 121, 211.453 122.013, 210.405 123.250 M 221.250 133.689 C 222.213 133.941, 223.787 133.941, 224.750 133.689 C 225.713 133.438, 224.925 133.232, 223 133.232 C 221.075 133.232, 220.287 133.438, 221.250 133.689 M 279.462 144.250 L 274.500 149.500 279.750 144.538 C 282.637 141.808, 285 139.446, 285 139.288 C 285 138.541, 284.074 139.372, 279.462 144.250 M 218 142.941 C 218 144.559, 218.356 146.102, 218.791 146.371 C 219.226 146.640, 219.402 145.316, 219.182 143.430 C 218.691 139.227, 218 138.941, 218 142.941 M 204.158 153 C 204.158 154.375, 204.385 154.938, 204.662 154.250 C 204.940 153.563, 204.940 152.438, 204.662 151.750 C 204.385 151.063, 204.158 151.625, 204.158 153 M 229 153.500 C 230.292 154.875, 231.574 156, 231.849 156 C 232.124 156, 231.292 154.875, 230 153.500 C 228.708 152.125, 227.426 151, 227.151 151 C 226.876 151, 227.708 152.125, 229 153.500 M 203.232 161 C 203.232 162.925, 203.438 163.713, 203.689 162.750 C 203.941 161.787, 203.941 160.213, 203.689 159.250 C 203.438 158.287, 203.232 159.075, 203.232 161 M 258.946 163.750 L 255.500 167.500 259.250 164.054 C 262.740 160.846, 263.460 160, 262.696 160 C 262.529 160, 260.842 161.688, 258.946 163.750 M 225.762 172.707 C 227.006 172.946, 228.806 172.937, 229.762 172.687 C 230.718 172.437, 229.700 172.241, 227.500 172.252 C 225.300 172.263, 224.518 172.468, 225.762 172.707 M 280 201 C 280 213.272, 280.362 220, 281.022 220 C 288.615 220, 304.224 207.688, 309.583 197.471 C 317.264 182.830, 316.564 182, 296.531 182 L 280 182 280 201 M 327.035 183.934 C 326.466 184.998, 325.993 186.911, 325.985 188.184 C 325.885 204.140, 304.622 226.730, 285.526 231.170 L 280 232.455 280 250.227 L 280 268 313.566 268 C 360.396 268, 356 272.914, 356 220.566 L 356 182 342.035 182 C 329.252 182, 327.983 182.164, 327.035 183.934 M 184 224.845 C 184 232.675, 184.986 236.410, 186.167 233.052 C 186.350 232.530, 188.637 231.968, 191.249 231.802 L 195.998 231.500 195.999 225.882 L 196 220.263 191.922 219.716 C 189.680 219.416, 186.980 218.387, 185.922 217.430 C 184.039 215.725, 184 215.877, 184 224.845 M 77.195 228.500 C 77.215 230.150, 77.439 230.704, 77.693 229.731 C 77.947 228.758, 77.930 227.408, 77.656 226.731 C 77.382 226.054, 77.175 226.850, 77.195 228.500 M 42.286 235.500 C 42.294 238.250, 42.488 239.256, 42.718 237.736 C 42.947 236.216, 42.941 233.966, 42.704 232.736 C 42.467 231.506, 42.279 232.750, 42.286 235.500 M 103.158 239 C 103.158 240.375, 103.385 240.938, 103.662 240.250 C 103.940 239.563, 103.940 238.438, 103.662 237.750 C 103.385 237.063, 103.158 237.625, 103.158 239 M 54.500 245 C 55.495 246.100, 56.535 247, 56.810 247 C 57.085 247, 56.495 246.100, 55.500 245 C 54.505 243.900, 53.465 243, 53.190 243 C 52.915 243, 53.505 243.900, 54.500 245 M 66.750 250.662 C 67.438 250.940, 68.563 250.940, 69.250 250.662 C 69.938 250.385, 69.375 250.158, 68 250.158 C 66.625 250.158, 66.063 250.385, 66.750 250.662 M 83.405 252.250 L 81.500 254.500 83.750 252.595 C 85.864 250.805, 86.455 250, 85.655 250 C 85.465 250, 84.453 251.012, 83.405 252.250 M 62.269 258.693 C 63.242 258.947, 64.592 258.930, 65.269 258.656 C 65.946 258.382, 65.150 258.175, 63.500 258.195 C 61.850 258.215, 61.296 258.439, 62.269 258.693 M 69.750 258.662 C 70.438 258.940, 71.563 258.940, 72.250 258.662 C 72.938 258.385, 72.375 258.158, 71 258.158 C 69.625 258.158, 69.063 258.385, 69.750 258.662 M 64.264 270.718 C 65.784 270.947, 68.034 270.941, 69.264 270.704 C 70.494 270.467, 69.250 270.279, 66.500 270.286 C 63.750 270.294, 62.744 270.488, 64.264 270.718 M 142.269 272.693 C 143.242 272.947, 144.592 272.930, 145.269 272.656 C 145.946 272.382, 145.150 272.175, 143.500 272.195 C 141.850 272.215, 141.296 272.439, 142.269 272.693 M 141.750 278.662 C 142.438 278.940, 143.563 278.940, 144.250 278.662 C 144.938 278.385, 144.375 278.158, 143 278.158 C 141.625 278.158, 141.063 278.385, 141.750 278.662 M 157.158 288 C 157.158 289.375, 157.385 289.938, 157.662 289.250 C 157.940 288.563, 157.940 287.438, 157.662 286.750 C 157.385 286.063, 157.158 286.625, 157.158 288 M 122.300 295 C 122.300 298.025, 122.487 299.262, 122.716 297.750 C 122.945 296.238, 122.945 293.762, 122.716 292.250 C 122.487 290.738, 122.300 291.975, 122.300 295 M 18.500 297 C 19.495 298.100, 20.535 299, 20.810 299 C 21.085 299, 20.495 298.100, 19.500 297 C 18.505 295.900, 17.465 295, 17.190 295 C 16.915 295, 17.505 295.900, 18.500 297 M 47.762 298.707 C 49.006 298.946, 50.806 298.937, 51.762 298.687 C 52.718 298.437, 51.700 298.241, 49.500 298.252 C 47.300 298.263, 46.518 298.468, 47.762 298.707 M 102.750 298.662 C 103.438 298.940, 104.563 298.940, 105.250 298.662 C 105.938 298.385, 105.375 298.158, 104 298.158 C 102.625 298.158, 102.063 298.385, 102.750 298.662 M 353.750 298.706 C 354.988 298.944, 357.012 298.944, 358.250 298.706 C 359.488 298.467, 358.475 298.272, 356 298.272 C 353.525 298.272, 352.512 298.467, 353.750 298.706 M 23.500 302 C 24.495 303.100, 25.535 304, 25.810 304 C 26.085 304, 25.495 303.100, 24.500 302 C 23.505 300.900, 22.465 300, 22.190 300 C 21.915 300, 22.505 300.900, 23.500 302 M 134 304.500 C 135.292 305.875, 136.574 307, 136.849 307 C 137.124 307, 136.292 305.875, 135 304.500 C 133.708 303.125, 132.426 302, 132.151 302 C 131.876 302, 132.708 303.125, 134 304.500 M 172.437 320.250 L 169.500 323.500 172.750 320.563 C 174.537 318.948, 176 317.485, 176 317.313 C 176 316.540, 175.175 317.221, 172.437 320.250 M 139 355.614 C 144.969 356.365, 151.775 356.440, 151.347 355.750 C 151.091 355.337, 147.646 355.067, 143.691 355.150 C 139.736 355.232, 137.625 355.441, 139 355.614 M 252 355.976 C 252 356.604, 252.412 356.864, 252.915 356.553 C 253.418 356.242, 254.059 356.452, 254.340 357.019 C 254.620 357.586, 254.743 357.504, 254.613 356.837 C 254.302 355.252, 252 354.492, 252 355.976 M 89.756 375.249 C 90.234 411.237, 90.578 414.567, 90.789 385.250 C 90.905 369.163, 90.662 356, 90.250 355.999 C 89.838 355.998, 89.615 364.661, 89.756 375.249 M 309.756 375.249 C 310.234 411.237, 310.578 414.567, 310.789 385.250 C 310.905 369.163, 310.663 356, 310.250 355.999 C 309.837 355.998, 309.615 364.661, 309.756 375.249 M 62.500 359 C 63.495 360.100, 64.535 361, 64.810 361 C 65.085 361, 64.495 360.100, 63.500 359 C 62.505 357.900, 61.465 357, 61.190 357 C 60.915 357, 61.505 357.900, 62.500 359 M 76.389 369.500 C 76.390 376.650, 76.550 379.444, 76.742 375.708 C 76.935 371.973, 76.934 366.123, 76.739 362.708 C 76.545 359.294, 76.387 362.350, 76.389 369.500 M 118.441 385.500 C 118.442 401.450, 118.580 407.835, 118.748 399.689 C 118.916 391.543, 118.916 378.493, 118.747 370.689 C 118.579 362.885, 118.441 369.550, 118.441 385.500 M 137.398 358.405 C 137.102 359.177, 137.016 361.315, 137.209 363.155 C 137.515 366.088, 137.617 365.915, 138.036 361.750 C 138.527 356.879, 138.346 355.934, 137.398 358.405 M 63 364.941 C 63 366.559, 63.356 368.102, 63.791 368.371 C 64.226 368.640, 64.402 367.316, 64.182 365.430 C 63.691 361.227, 63 360.941, 63 364.941 M 365.195 364.500 C 365.215 366.150, 365.439 366.704, 365.693 365.731 C 365.947 364.758, 365.930 363.408, 365.656 362.731 C 365.382 362.054, 365.175 362.850, 365.195 364.500 M 318.425 386 C 318.425 397.825, 318.569 402.663, 318.746 396.750 C 318.923 390.837, 318.923 381.163, 318.746 375.250 C 318.569 369.337, 318.425 374.175, 318.425 386 M 342.431 390.500 C 342.432 403.700, 342.574 408.962, 342.747 402.193 C 342.921 395.424, 342.920 384.624, 342.746 378.193 C 342.572 371.762, 342.431 377.300, 342.431 390.500 M 137.286 372.500 C 137.294 375.250, 137.488 376.256, 137.718 374.736 C 137.947 373.216, 137.941 370.966, 137.704 369.736 C 137.467 368.506, 137.279 369.750, 137.286 372.500 M 320.422 388 C 320.422 399.275, 320.568 403.887, 320.746 398.250 C 320.924 392.613, 320.924 383.387, 320.746 377.750 C 320.568 372.113, 320.422 376.725, 320.422 388 M 40.252 373.500 C 40.263 375.700, 40.468 376.482, 40.707 375.238 C 40.946 373.994, 40.937 372.194, 40.687 371.238 C 40.437 370.282, 40.241 371.300, 40.252 373.500 M 12.158 378 C 12.158 379.375, 12.385 379.938, 12.662 379.250 C 12.940 378.563, 12.940 377.438, 12.662 376.750 C 12.385 376.063, 12.158 376.625, 12.158 378 M 212.158 379 C 212.158 380.375, 212.385 380.938, 212.662 380.250 C 212.940 379.563, 212.940 378.438, 212.662 377.750 C 212.385 377.063, 212.158 377.625, 212.158 379 M 263.195 379.500 C 263.215 381.150, 263.439 381.704, 263.693 380.731 C 263.947 379.758, 263.930 378.408, 263.656 377.731 C 263.382 377.054, 263.175 377.850, 263.195 379.500 M 218.158 380 C 218.158 381.375, 218.385 381.938, 218.662 381.250 C 218.940 380.563, 218.940 379.438, 218.662 378.750 C 218.385 378.063, 218.158 378.625, 218.158 380 M 278.158 382 C 278.158 383.375, 278.385 383.938, 278.662 383.250 C 278.940 382.563, 278.940 381.438, 278.662 380.750 C 278.385 380.063, 278.158 380.625, 278.158 382 M 83 383 L 77.500 383.674 82.691 383.837 C 85.546 383.927, 88.160 383.550, 88.500 383 C 88.840 382.450, 88.979 382.073, 88.809 382.163 C 88.639 382.253, 86.025 382.629, 83 383 M 140.762 382.707 C 142.006 382.946, 143.806 382.937, 144.762 382.687 C 145.718 382.437, 144.700 382.241, 142.500 382.252 C 140.300 382.263, 139.518 382.468, 140.762 382.707 M 76.395 399.500 C 76.396 407.200, 76.553 410.218, 76.743 406.206 C 76.934 402.195, 76.932 395.895, 76.741 392.206 C 76.549 388.518, 76.393 391.800, 76.395 399.500 M 209.158 390 C 209.158 391.375, 209.385 391.938, 209.662 391.250 C 209.940 390.563, 209.940 389.438, 209.662 388.750 C 209.385 388.063, 209.158 388.625, 209.158 390 M 3.158 392 C 3.158 393.375, 3.385 393.938, 3.662 393.250 C 3.940 392.563, 3.940 391.438, 3.662 390.750 C 3.385 390.063, 3.158 390.625, 3.158 392 M 137.370 402 C 137.370 407.775, 137.535 410.137, 137.737 407.250 C 137.939 404.363, 137.939 399.637, 137.737 396.750 C 137.535 393.863, 137.370 396.225, 137.370 402 M 7.250 397.689 C 8.213 397.941, 9.787 397.941, 10.750 397.689 C 11.713 397.438, 10.925 397.232, 9 397.232 C 7.075 397.232, 6.287 397.438, 7.250 397.689 M 213.250 397.689 C 214.213 397.941, 215.787 397.941, 216.750 397.689 C 217.713 397.438, 216.925 397.232, 215 397.232 C 213.075 397.232, 212.287 397.438, 213.250 397.689 M 302.286 401.500 C 302.294 404.250, 302.488 405.256, 302.718 403.736 C 302.947 402.216, 302.941 399.966, 302.704 398.736 C 302.467 397.506, 302.279 398.750, 302.286 401.500 M 40.195 403.500 C 40.215 405.150, 40.439 405.704, 40.693 404.731 C 40.947 403.758, 40.930 402.408, 40.656 401.731 C 40.382 401.054, 40.175 401.850, 40.195 403.500 M 63.414 402.364 C 63.099 403.184, 63.041 404.900, 63.285 406.177 C 63.600 407.832, 63.771 407.493, 63.879 405 C 63.994 402.345, 64.265 401.862, 65 403 C 65.582 403.901, 65.975 404.025, 65.985 403.309 C 66.009 401.433, 64.048 400.712, 63.414 402.364 M 207.158 406 C 207.158 407.375, 207.385 407.938, 207.662 407.250 C 207.940 406.563, 207.940 405.438, 207.662 404.750 C 207.385 404.063, 207.158 404.625, 207.158 406 M 208.158 413 C 208.158 414.375, 208.385 414.938, 208.662 414.250 C 208.940 413.563, 208.940 412.438, 208.662 411.750 C 208.385 411.063, 208.158 411.625, 208.158 413 M 292.750 411.662 C 293.438 411.940, 294.563 411.940, 295.250 411.662 C 295.938 411.385, 295.375 411.158, 294 411.158 C 292.625 411.158, 292.063 411.385, 292.750 411.662 M 372.750 411.662 C 373.438 411.940, 374.563 411.940, 375.250 411.662 C 375.938 411.385, 375.375 411.158, 374 411.158 C 372.625 411.158, 372.063 411.385, 372.750 411.662" stroke="none" fill="#f3be22" fill-rule="evenodd"/><path d="M 319.118 14.763 C 317.807 14.989, 315.649 16.260, 314.322 17.587 C 312.995 18.914, 311.431 20, 310.848 20 C 310.255 20, 310.077 20.759, 310.446 21.720 C 310.809 22.665, 310.786 23.120, 310.396 22.729 C 309.707 22.040, 299.988 30.443, 300.091 31.639 C 300.120 31.967, 298.801 33.051, 297.161 34.048 C 293.893 36.036, 293.225 37.571, 293.123 43.335 C 293.072 46.199, 292.413 47.674, 290.518 49.165 C 289.112 50.270, 288.280 51.682, 288.651 52.330 C 289.019 52.974, 288.941 53.155, 288.477 52.734 C 288.013 52.312, 286.254 53.287, 284.567 54.900 C 270.401 68.446, 261.545 77.525, 261.775 78.265 C 261.926 78.751, 261.633 78.891, 261.123 78.576 C 260.075 77.928, 253 84.626, 253 86.267 C 253 86.853, 252.748 87.081, 252.439 86.773 C 251.719 86.052, 246.448 91.232, 246.791 92.324 C 246.933 92.778, 246.624 92.886, 246.105 92.565 C 245.585 92.244, 244.337 93.025, 243.330 94.302 C 242.324 95.578, 239.025 98.823, 236 101.513 C 232.975 104.202, 230.548 106.649, 230.607 106.951 C 230.666 107.253, 229.879 108.287, 228.857 109.250 C 227.836 110.212, 227 110.805, 227 110.567 C 227 110.329, 224.188 112.828, 220.750 116.119 C 217.313 119.411, 214.624 122.564, 214.775 123.127 C 214.926 123.689, 214.696 123.930, 214.264 123.663 C 213.832 123.396, 212.609 123.812, 211.548 124.589 C 210.486 125.365, 210.041 126.007, 210.559 126.015 C 211.076 126.024, 210.988 126.361, 210.363 126.765 C 209.095 127.585, 204.986 153.897, 204.995 161.146 C 204.999 165.244, 205.434 166.174, 208.675 169.019 L 212.349 172.245 222.925 171.506 C 228.741 171.100, 234.490 170.813, 235.700 170.868 C 236.911 170.924, 238.175 170.526, 238.509 169.985 C 238.844 169.443, 241.541 169, 244.502 169 C 249.874 169, 257.603 165.785, 256.504 164.007 C 256.233 163.568, 256.712 162.941, 257.569 162.612 C 258.440 162.278, 258.810 161.502, 258.409 160.853 C 257.983 160.163, 258.126 159.960, 258.761 160.352 C 260.179 161.229, 266.192 156.119, 265.348 154.754 C 264.987 154.169, 265.142 153.970, 265.692 154.310 C 266.990 155.112, 272.269 149.627, 271.264 148.520 C 270.844 148.058, 271.012 147.972, 271.637 148.329 C 273.015 149.116, 275.285 146.650, 274.241 145.498 C 273.834 145.048, 274.025 144.980, 274.666 145.347 C 276.148 146.195, 282.239 140.196, 281.353 138.761 C 280.950 138.110, 281.165 137.984, 281.903 138.440 C 282.639 138.895, 284.397 137.877, 286.384 135.844 C 288.183 134.005, 291.493 130.849, 293.741 128.830 C 295.989 126.812, 297.566 124.900, 297.247 124.580 C 296.928 124.261, 297.218 124, 297.892 124 C 298.566 124, 298.797 123.480, 298.405 122.845 C 297.947 122.105, 298.132 121.964, 298.922 122.452 C 300.201 123.242, 304 119.943, 304 118.042 C 304 117.067, 305.432 116.578, 307.324 116.906 C 307.778 116.985, 307.924 116.686, 307.649 116.241 C 307.374 115.797, 308.463 114.387, 310.068 113.109 C 311.673 111.832, 312.731 110.373, 312.419 109.868 C 312.107 109.363, 312.447 109.074, 313.176 109.225 C 313.904 109.376, 314.369 108.882, 314.209 108.127 C 314.015 107.211, 314.477 106.969, 315.601 107.400 C 317.007 107.940, 317.077 107.797, 316.028 106.534 C 315.338 105.702, 314.305 105.312, 313.732 105.666 C 313.101 106.055, 312.993 105.820, 313.458 105.067 C 314.011 104.173, 314.530 104.130, 315.313 104.913 C 316.678 106.278, 319.335 106.350, 318.500 105 C 318.160 104.450, 318.250 104, 318.699 104 C 320.200 104, 330.982 93.780, 330.428 92.883 C 330.128 92.397, 330.561 92, 331.391 92 C 332.221 92, 333.316 91.257, 333.824 90.350 C 334.417 89.290, 336.815 88.419, 340.524 87.916 C 345.942 87.180, 348.511 85.636, 347.375 83.798 C 347.104 83.359, 347.776 83, 348.868 83 C 349.961 83, 351.740 81.875, 352.821 80.500 C 353.903 79.125, 355.093 78, 355.465 78 C 356.531 78, 359 75.256, 359 74.071 C 359 73.482, 359.472 73, 360.050 73 C 364.490 73, 370.451 62.389, 369.012 57.046 C 367.989 53.246, 358.128 43.194, 355.970 43.750 C 355.436 43.888, 355 43.403, 355 42.672 C 355 41.942, 352.300 38.751, 349 35.582 C 345.700 32.412, 343 30.102, 343 30.449 C 343 30.795, 342.372 30.499, 341.605 29.789 C 340.838 29.080, 340.379 28.220, 340.585 27.878 C 341.156 26.930, 334.821 21.992, 333.824 22.609 C 333.344 22.906, 333.074 22.553, 333.225 21.824 C 333.376 21.096, 332.904 20.624, 332.176 20.775 C 331.447 20.926, 331.094 20.656, 331.392 20.175 C 332.969 17.623, 324.413 13.849, 319.118 14.763 M 140.500 16 C 140.160 16.550, 139.063 17, 138.063 17 C 137.063 17, 134.616 17.680, 132.627 18.511 C 130.637 19.343, 128.720 19.979, 128.367 19.926 C 128.013 19.873, 127.448 20.208, 127.112 20.670 C 126.775 21.133, 124.783 22.792, 122.684 24.357 C 120.586 25.922, 119.115 27.448, 119.416 27.749 C 119.717 28.051, 119.142 29.018, 118.139 29.898 C 114.570 33.031, 110.981 43.269, 110.654 51.250 L 110.500 55 105.437 55 L 100.375 55 98.226 50.080 C 96.970 47.203, 95.225 44.889, 94.024 44.508 C 92.895 44.149, 92.145 43.551, 92.358 43.178 C 92.570 42.805, 91.833 41.600, 90.718 40.500 C 89.522 39.319, 88.979 39.114, 89.393 40 C 89.778 40.825, 89.342 40.488, 88.424 39.250 C 87.507 38.013, 86.136 37, 85.378 37 C 84.620 37, 84 36.550, 84 36 C 84 35.450, 82.965 35, 81.700 35 C 80.435 35, 78.853 34.453, 78.183 33.783 C 77 32.600, 60.427 32.169, 57 33.232 C 51.321 34.995, 47.478 36.906, 45.036 39.181 C 43.938 40.204, 42.693 41.070, 42.269 41.104 C 40.938 41.212, 40.607 42, 41.892 42 C 42.566 42, 42.835 42.457, 42.490 43.016 C 42.144 43.575, 41.494 43.805, 41.044 43.527 C 39.796 42.756, 37.727 45.750, 38.568 47.111 C 39.026 47.852, 38.885 48.047, 38.198 47.623 C 36.782 46.747, 33.971 50.988, 33.589 54.580 C 33.263 57.632, 27.778 64, 25.474 64 C 24.663 64, 24 64.356, 24 64.792 C 24 65.227, 22.395 67.285, 20.433 69.365 C 18.471 71.445, 15.884 75.251, 14.683 77.823 L 12.500 82.500 12.500 181.500 C 12.500 264.971, 12.726 281.206, 13.942 285 C 16.429 292.763, 23.721 301.909, 26.201 300.376 C 26.810 299.999, 27.062 300.098, 26.759 300.595 C 26.101 301.679, 28.524 304.142, 29.393 303.273 C 29.727 302.940, 30 303.186, 30 303.820 C 30 308.099, 46.301 310, 83.002 310 C 115.424 310, 118 310.371, 118 315.043 C 118 316.639, 123.207 321.135, 124.487 320.643 C 125.326 320.321, 125.710 320.593, 125.433 321.315 C 124.825 322.899, 131.118 326.276, 133.194 325.479 C 134.076 325.141, 135.092 325.339, 135.451 325.920 C 135.856 326.576, 135.421 326.763, 134.302 326.413 C 132.824 325.950, 132.859 326.082, 134.500 327.148 C 137.190 328.896, 156.109 328.984, 158.188 327.259 C 159.011 326.576, 159.980 326.313, 160.342 326.675 C 160.704 327.037, 161 326.760, 161 326.060 C 161 325.338, 161.651 325.036, 162.500 325.362 C 163.325 325.678, 164 325.478, 164 324.917 C 164 324.355, 165.318 323.436, 166.930 322.875 C 168.541 322.313, 171.199 320.199, 172.836 318.177 C 174.474 316.155, 176.643 313.471, 177.657 312.213 L 179.500 309.925 266.708 309.978 C 363.217 310.037, 377 309.154, 377 302.911 C 377 302.410, 377.702 302, 378.559 302 C 379.483 302, 379.827 301.530, 379.405 300.845 C 378.956 300.120, 379.131 299.963, 379.873 300.422 C 380.558 300.845, 381.872 300.173, 382.995 298.826 C 385.124 296.272, 385.690 293.455, 383.845 294.595 C 383.114 295.048, 382.963 294.869, 383.435 294.106 C 383.973 293.234, 384.537 293.201, 385.483 293.986 C 386.712 295.006, 391.445 287.576, 391.526 284.500 C 391.541 283.950, 391.991 282.825, 392.526 282 C 393.897 279.888, 394.420 97.920, 393.084 87.847 C 391.984 79.554, 384 62.733, 384 68.709 C 384 69.335, 382.801 71.271, 381.336 73.013 C 379.158 75.601, 378.930 76.342, 380.086 77.074 C 381.283 77.832, 381.270 77.974, 380 78 C 378.667 78.027, 378.667 78.138, 380 79 C 380.825 79.533, 381.107 79.976, 380.628 79.985 C 380.148 79.993, 380.373 80.744, 381.128 81.654 C 382.806 83.676, 383.676 284, 382.007 284 C 381.481 284, 380.391 285.238, 379.584 286.750 C 377.798 290.098, 373.566 295, 372.462 295 C 372.020 295, 370.788 295.788, 369.725 296.750 C 367.950 298.357, 363.934 298.520, 320.646 298.750 C 294.716 298.888, 252.732 299.113, 227.348 299.250 C 184.179 299.484, 181.255 299.390, 182.106 297.800 C 182.638 296.807, 183.010 248.807, 183 182.300 C 182.991 119.710, 182.987 67.825, 182.992 67 C 182.999 65.692, 187.380 65.529, 217.303 65.727 L 251.606 65.953 255.296 62.370 C 257.325 60.399, 258.694 58.314, 258.338 57.738 C 257.982 57.162, 258.160 56.981, 258.732 57.334 C 259.305 57.688, 260.338 57.298, 261.027 56.467 C 262.142 55.124, 257.883 54.964, 222.547 55.023 L 182.813 55.089 182.387 48.966 C 181.913 42.153, 179.591 35.517, 178.021 36.487 C 177.459 36.834, 177 36.641, 177 36.059 C 177 35.477, 177.477 35, 178.059 35 C 178.641 35, 178.835 34.543, 178.490 33.984 C 178.144 33.425, 177.485 33.200, 177.024 33.485 C 176.563 33.770, 176.409 33.153, 176.680 32.114 C 177.335 29.610, 175.343 28.491, 173.206 30.164 C 171.669 31.367, 171.636 31.326, 172.872 29.750 C 174.419 27.778, 172.681 24.461, 170.732 25.666 C 170.160 26.019, 169.968 25.861, 170.306 25.314 C 171.324 23.666, 165.409 20.050, 157.441 17.449 C 149.722 14.929, 141.591 14.234, 140.500 16 M 161.014 21.414 C 161.662 22.062, 162.338 22.062, 162.986 21.414 C 163.633 20.767, 163.295 20.429, 162 20.429 C 160.705 20.429, 160.367 20.767, 161.014 21.414 M 318.993 26.508 C 317.737 27.845, 316.255 28.658, 315.700 28.315 C 315.145 27.972, 314.983 28.163, 315.340 28.741 C 315.697 29.318, 312.729 32.798, 308.744 36.473 L 301.500 43.156 305.249 46.174 C 307.312 47.835, 308.705 49.669, 308.345 50.251 C 307.985 50.833, 308.160 51.019, 308.732 50.666 C 310.057 49.847, 312.384 52.570, 311.534 53.945 C 311.140 54.582, 311.553 54.725, 312.612 54.319 C 313.868 53.836, 314.109 54.015, 313.510 54.985 C 312.992 55.822, 313.080 56.069, 313.747 55.656 C 314.939 54.919, 322.074 61.593, 321.117 62.550 C 320.778 62.889, 320.993 63.017, 321.596 62.833 C 322.768 62.477, 332 70.487, 332 71.860 C 332 72.310, 333.135 73.196, 334.522 73.828 C 336.507 74.733, 336.943 75.528, 336.573 77.568 C 336.204 79.608, 336.380 79.930, 337.403 79.081 C 338.118 78.487, 339.862 77.906, 341.279 77.789 C 342.696 77.672, 343.680 77.291, 343.465 76.943 C 343.249 76.594, 346.613 73.046, 350.939 69.056 C 357.846 62.688, 362.094 56.259, 358.479 57.646 C 357.814 57.901, 356.114 56.735, 354.700 55.055 C 353.286 53.375, 351.907 52, 351.635 52 C 350.576 52, 339.516 39.689, 339.775 38.798 C 339.926 38.277, 339.598 38.130, 339.046 38.471 C 337.813 39.233, 325.860 28.036, 326.610 26.822 C 326.906 26.343, 326.778 26.057, 326.324 26.188 C 325.871 26.318, 324.550 25.897, 323.388 25.251 C 321.591 24.252, 320.936 24.439, 318.993 26.508 M 365.429 54 C 365.429 55.295, 365.767 55.633, 366.414 54.986 C 367.062 54.338, 367.062 53.662, 366.414 53.014 C 365.767 52.367, 365.429 52.705, 365.429 54 M 297 57.059 C 297 57.641, 296.582 57.860, 296.072 57.544 C 295.562 57.229, 294.846 57.910, 294.482 59.058 C 294.033 60.471, 293.294 60.943, 292.190 60.519 C 291.294 60.176, 290.893 60.226, 291.298 60.631 C 292.232 61.565, 286.072 68, 284.245 68 C 283.459 68, 283.188 68.495, 283.605 69.170 C 284.095 69.962, 283.778 70.129, 282.624 69.686 C 281.538 69.269, 281.021 69.480, 281.198 70.266 C 281.563 71.885, 270.409 83, 268.419 83 C 267.574 83, 267.106 83.363, 267.380 83.806 C 268.023 84.846, 260.678 92, 258.967 92 C 258.252 92, 257.958 92.292, 258.315 92.648 C 258.991 93.325, 255.275 97, 253.914 97 C 253.486 97, 252.839 97.933, 252.477 99.072 C 252.069 100.359, 251.265 100.932, 250.358 100.584 C 249.554 100.275, 249.126 100.395, 249.407 100.849 C 250.122 102.007, 242.546 109.213, 241.604 108.270 C 241.180 107.847, 240.964 107.950, 241.123 108.500 C 241.467 109.689, 234.972 117.101, 234.073 116.545 C 233.731 116.334, 232.443 117.913, 231.211 120.055 C 229.340 123.305, 229.247 123.842, 230.649 123.304 C 231.572 122.950, 232.074 123.074, 231.762 123.580 C 231.451 124.086, 232.435 124.545, 233.949 124.599 C 240.233 124.825, 251.086 135.248, 254.411 144.250 C 256.416 149.678, 257.315 149.988, 260.917 146.494 C 276.232 131.634, 281.329 127.086, 282.118 127.573 C 282.631 127.890, 282.926 127.736, 282.775 127.231 C 282.624 126.726, 286.212 122.557, 290.750 117.967 C 295.288 113.376, 299 109.948, 299 110.349 C 299 110.751, 299.628 110.499, 300.395 109.789 C 301.162 109.080, 301.636 108.244, 301.449 107.932 C 301.261 107.620, 302.023 106.720, 303.142 105.932 C 304.261 105.144, 307.692 102.025, 310.767 99 C 313.842 95.975, 316.728 93.612, 317.179 93.750 C 317.631 93.887, 318 93.377, 318 92.615 C 318 91.356, 322.565 87.588, 324.167 87.526 C 324.533 87.512, 325.208 87.090, 325.667 86.590 C 326.151 86.061, 325.976 85.981, 325.250 86.399 C 323.171 87.595, 323.848 85.944, 326.226 84.018 L 328.453 82.215 324.296 77.705 C 322.009 75.224, 319.811 73.489, 319.410 73.847 C 319.009 74.206, 318.955 73.735, 319.290 72.801 C 319.676 71.721, 319.461 71.260, 318.699 71.535 C 318.040 71.773, 313.900 68.375, 309.500 63.984 C 302.097 56.596, 297 53.773, 297 57.059 M 102.500 153.049 C 102.500 222.797, 102.231 242.169, 101.250 243.150 C 100.562 243.838, 100 245.029, 100 245.799 C 100 250.365, 92.502 260.076, 86.750 262.959 C 85.237 263.718, 84 264.767, 84 265.291 C 84 265.816, 83.315 265.676, 82.477 264.981 C 81.221 263.939, 81.053 263.976, 81.520 265.192 C 82.101 266.706, 81.128 267.040, 75.666 267.197 C 73.719 267.253, 73.250 267.543, 74.166 268.124 C 74.957 268.625, 72.216 268.976, 67.428 268.985 C 58.761 269.001, 51.609 267.148, 48.245 264.013 C 47.127 262.972, 45.976 262.357, 45.687 262.646 C 45.398 262.935, 44.673 262.257, 44.074 261.139 C 43.201 259.507, 43.333 258.905, 44.743 258.084 C 45.710 257.521, 46.028 257.047, 45.450 257.030 C 44.873 257.014, 43.935 257.465, 43.367 258.033 C 40.422 260.978, 35.003 252.837, 32.075 241.068 C 30.034 232.860, 29.979 230.561, 30.012 154.260 C 30.049 69.866, 30.135 71.439, 25.893 78.644 L 23.034 83.500 23.017 183.027 C 23.002 271.507, 23.173 282.802, 24.557 284.777 C 25.413 286, 25.750 287.007, 25.307 287.015 C 24.863 287.024, 25.073 287.394, 25.773 287.839 C 26.474 288.283, 27.247 289.687, 27.492 290.959 C 27.737 292.230, 28.248 293.547, 28.628 293.885 C 29.008 294.223, 29.032 293.702, 28.682 292.727 C 27.941 290.665, 30.062 291.519, 33.500 294.668 C 38.085 298.868, 39.251 298.994, 76.036 299.251 C 108.720 299.480, 111.572 299.365, 111.572 297.823 C 111.572 296.901, 111.218 296.365, 110.786 296.632 C 110.354 296.900, 110 245.116, 110 181.559 L 110 66 107.934 66 C 106.798 66, 105.111 65.594, 104.184 65.099 C 102.611 64.257, 102.500 70.060, 102.500 153.049 M 324.632 67.786 C 324.365 68.218, 324.981 68.571, 326 68.571 C 327.019 68.571, 327.635 68.218, 327.368 67.786 C 327.100 67.354, 326.485 67, 326 67 C 325.515 67, 324.900 67.354, 324.632 67.786 M 230.166 109.876 C 229.068 110.572, 229.083 110.818, 230.249 111.265 C 231.058 111.576, 231.667 111.206, 231.667 110.405 C 231.667 109.632, 231.629 109.007, 231.583 109.015 C 231.537 109.024, 230.900 109.411, 230.166 109.876 M 291.490 129.016 C 291.144 129.575, 290.373 129.731, 289.776 129.362 C 289.113 128.952, 288.980 129.159, 289.435 129.894 C 290.106 130.980, 293 129.749, 293 128.378 C 293 127.639, 292.108 128.016, 291.490 129.016 M 220.075 132.829 C 216.690 135.727, 216.048 147.544, 219.232 148.343 C 223.146 149.326, 229.100 154.500, 227.805 155.795 C 227.014 156.586, 227.308 156.732, 228.871 156.324 C 230.631 155.863, 230.903 156.089, 230.345 157.544 C 229.895 158.716, 230.038 159.095, 230.761 158.648 C 231.366 158.274, 232.144 158.425, 232.490 158.984 C 234.230 161.800, 247 159.389, 247 156.244 C 247 153.253, 243.186 143.277, 241.335 141.425 C 240.051 140.141, 239 138.651, 239 138.113 C 239 137.575, 237.988 136.819, 236.750 136.433 C 235.512 136.046, 234.275 135.424, 234 135.049 C 232.372 132.832, 222.003 131.178, 220.075 132.829 M 54.825 213.787 C 45.486 218.416, 39.772 228.878, 41.501 238.185 C 41.839 240.008, 42.240 242.175, 42.392 243 C 42.879 245.645, 45.290 250, 46.268 250 C 46.788 250, 46.917 250.774, 46.554 251.720 C 46.191 252.665, 46.206 253.127, 46.587 252.746 C 46.968 252.365, 48.904 253.322, 50.890 254.872 C 57.059 259.688, 66.755 261.182, 75.249 258.626 C 79.461 257.358, 80.631 256.678, 84.416 253.298 C 85.156 252.636, 86.078 252.411, 86.464 252.798 C 86.851 253.184, 87.034 253.050, 86.871 252.500 C 86.408 250.935, 88.992 246.877, 90.039 247.524 C 90.555 247.843, 90.741 247.488, 90.452 246.736 C 90.164 245.984, 90.616 244.048, 91.458 242.434 C 93.241 239.013, 93.428 234.525, 91.960 230.316 C 90.466 226.031, 88.553 226.593, 88.210 231.417 C 87.893 235.869, 83.642 243, 81.305 243 C 80.522 243, 80.165 243.458, 80.511 244.018 C 83.639 249.079, 63.142 250.244, 57.396 245.332 C 55.803 243.970, 55.175 243.152, 56 243.514 C 56.825 243.877, 56.456 243.322, 55.181 242.280 C 50.180 238.198, 51.464 227.172, 57.472 222.589 C 63.216 218.208, 70.023 221.351, 67.005 226.990 C 66.397 228.126, 65.495 228.806, 65 228.500 C 63.769 227.739, 62.388 230.696, 61.731 235.500 C 61.430 237.700, 61.389 238.983, 61.641 238.351 C 61.969 237.530, 62.987 237.646, 65.216 238.758 C 67.706 240, 68.933 240.086, 71.313 239.188 C 72.952 238.569, 74.747 238.343, 75.301 238.686 C 75.855 239.029, 76.017 238.837, 75.660 238.259 C 74.881 236.999, 77.736 235.719, 79.245 236.651 C 79.893 237.052, 80.014 236.831, 79.553 236.086 C 79.138 235.414, 78.147 235.113, 77.351 235.419 C 76.147 235.881, 76.164 235.604, 77.453 233.764 C 81.363 228.181, 74.311 212.334, 67.732 211.923 C 60.773 211.488, 58.926 211.755, 54.825 213.787 M 139.313 271.914 C 136.550 272.786, 133.661 274.026, 132.892 274.668 C 132.122 275.310, 130.820 275.985, 129.997 276.168 C 121.549 278.043, 118.782 300.631, 125.852 310 C 127.305 311.925, 128.371 313.871, 128.222 314.324 C 128.073 314.778, 128.445 314.843, 129.049 314.470 C 129.654 314.096, 131.156 314.737, 132.388 315.895 C 135.904 319.198, 145.040 320.488, 153.500 318.877 C 157.350 318.144, 160.785 317.629, 161.132 317.733 C 161.480 317.837, 161.705 317.152, 161.632 316.211 C 161.552 315.167, 162.167 314.552, 163.211 314.632 C 164.152 314.705, 164.827 314.459, 164.711 314.085 C 164.362 312.962, 169.724 307.058, 170.442 307.775 C 170.807 308.140, 170.807 307.662, 170.443 306.711 C 170.078 305.761, 170.557 303.347, 171.506 301.346 C 174.019 296.050, 172.717 287, 169.441 287 C 168.412 287, 168 288.217, 168 291.259 C 168 295.458, 165.290 298.915, 163.073 297.545 C 162.607 297.257, 161.635 297.805, 160.912 298.761 C 159.904 300.093, 159.897 300.235, 160.883 299.366 C 162.770 297.701, 166.393 298.822, 164.908 300.611 C 164.284 301.363, 163.305 301.688, 162.732 301.334 C 162.155 300.978, 161.987 301.170, 162.355 301.765 C 163.221 303.167, 158.046 307.232, 156.266 306.549 C 155.513 306.259, 155.145 306.425, 155.449 306.917 C 156.330 308.342, 146.470 309.322, 144.087 308.047 C 142.939 307.432, 142 307.161, 142 307.445 C 142 309.104, 135.401 303.873, 133.854 300.988 C 130.191 294.159, 134.492 278.714, 139.239 281.648 C 139.658 281.906, 140 281.690, 140 281.166 C 140 279.033, 143.393 279.021, 145.655 281.146 C 149.206 284.481, 147.416 289.292, 143 288.282 C 142.725 288.219, 142.431 289.314, 142.348 290.714 C 142.264 292.115, 141.589 293.646, 140.848 294.115 C 140.036 294.630, 139.950 294.975, 140.633 294.985 C 141.257 294.993, 142.008 295.924, 142.303 297.052 C 143.166 300.349, 153.552 299.500, 156.221 295.913 C 159.715 291.219, 159.390 279, 155.772 279 C 155.230 279, 155.054 278.302, 155.382 277.448 C 155.709 276.594, 155.563 276.152, 155.058 276.464 C 154.552 276.777, 153.878 276.611, 153.560 276.097 C 151.249 272.359, 144.336 270.329, 139.313 271.914" stroke="none" fill="#0f5952" fill-rule="evenodd"/><path d="M 317.750 14.662 C 318.438 14.940, 319.563 14.940, 320.250 14.662 C 320.938 14.385, 320.375 14.158, 319 14.158 C 317.625 14.158, 317.063 14.385, 317.750 14.662 M 323.750 14.662 C 324.438 14.940, 325.563 14.940, 326.250 14.662 C 326.938 14.385, 326.375 14.158, 325 14.158 C 323.625 14.158, 323.063 14.385, 323.750 14.662 M 133.569 16.833 C 130.858 17.796, 128.467 19.100, 128.256 19.732 C 128.038 20.387, 129.597 20.047, 131.888 18.940 C 134.097 17.873, 136.799 17, 137.893 17 C 138.987 17, 140.160 16.550, 140.500 16 C 141.386 14.567, 139.221 14.827, 133.569 16.833 M 152.991 15.921 C 153.812 16.468, 156.623 17.430, 159.239 18.057 C 161.855 18.685, 163.726 19.634, 163.397 20.167 C 163.067 20.700, 162.056 20.854, 161.149 20.509 C 159.858 20.018, 159.762 20.145, 160.708 21.098 C 161.656 22.054, 162.233 22.051, 163.399 21.084 C 165.040 19.722, 171.441 23.477, 170.386 25.184 C 170.092 25.660, 170.447 25.926, 171.176 25.775 C 171.904 25.624, 172.376 26.096, 172.225 26.824 C 172.074 27.553, 172.412 27.864, 172.975 27.515 C 174.409 26.629, 174.256 28.313, 172.750 30.002 C 171.691 31.189, 171.761 31.207, 173.206 30.116 C 175.356 28.493, 177.330 29.628, 176.680 32.114 C 176.409 33.153, 176.563 33.770, 177.024 33.485 C 177.485 33.200, 178.144 33.425, 178.490 33.984 C 178.835 34.543, 178.641 35, 178.059 35 C 177.477 35, 177 35.477, 177 36.059 C 177 36.641, 177.458 36.835, 178.019 36.488 C 178.579 36.142, 179.686 37.353, 180.479 39.179 C 181.307 41.085, 181.938 41.750, 181.961 40.739 C 182.098 34.571, 172.831 22.956, 164.399 18.729 C 159.469 16.257, 150.004 13.928, 152.991 15.921 M 313 17 C 311.641 18.025, 310.789 19.122, 311.105 19.438 C 311.421 19.754, 312.724 19.107, 314 18 C 317.017 15.384, 316.211 14.578, 313 17 M 328 15.710 C 328 16.155, 328.917 17.092, 330.039 17.792 C 331.160 18.492, 331.802 19.512, 331.464 20.057 C 331.127 20.603, 331.447 20.926, 332.176 20.775 C 332.904 20.624, 333.376 21.096, 333.225 21.824 C 333.074 22.553, 333.344 22.906, 333.824 22.609 C 334.821 21.992, 341.156 26.930, 340.585 27.878 C 340.379 28.220, 340.814 29.058, 341.552 29.740 C 346.552 34.360, 342.682 27.899, 337.418 22.838 C 330.601 16.284, 328 14.315, 328 15.710 M 121.078 24.524 C 115.481 29.759, 111.479 37.138, 110.514 44 C 109.714 49.697, 111.587 47.437, 112.569 41.520 C 113.358 36.768, 115.579 32.127, 118.130 29.898 C 119.138 29.018, 119.717 28.051, 119.416 27.749 C 118.982 27.316, 121.997 24.720, 126.917 21.290 C 127.146 21.131, 127.063 20.729, 126.732 20.399 C 126.401 20.068, 123.857 21.925, 121.078 24.524 M 301.259 28.250 C 296.735 32.788, 292.755 36.808, 292.415 37.185 C 292.076 37.561, 291.506 40.036, 291.149 42.685 C 290.426 48.052, 293.837 44.483, 244.492 91.500 C 232.948 102.500, 219.847 115.100, 215.380 119.500 L 207.257 127.500 206.016 139.804 C 204.379 156.022, 205.179 156.277, 207.398 140.245 C 208.367 133.246, 209.686 127.185, 210.330 126.775 C 210.973 126.366, 211.076 126.024, 210.559 126.015 C 210.041 126.007, 210.486 125.365, 211.548 124.589 C 212.609 123.812, 213.832 123.396, 214.264 123.663 C 214.696 123.930, 214.926 123.689, 214.775 123.127 C 214.624 122.564, 217.313 119.411, 220.750 116.119 C 224.188 112.828, 227 110.329, 227 110.567 C 227 110.805, 227.836 110.212, 228.857 109.250 C 229.879 108.287, 230.666 107.252, 230.607 106.948 C 230.478 106.283, 238.192 99.394, 238.667 99.750 C 238.850 99.888, 238.939 99.888, 238.864 99.750 C 238.451 98.991, 245.448 92.159, 246.177 92.610 C 246.657 92.906, 246.933 92.778, 246.791 92.324 C 246.448 91.232, 251.719 86.052, 252.439 86.773 C 252.748 87.081, 253 86.853, 253 86.267 C 253 84.626, 260.075 77.928, 261.123 78.576 C 261.633 78.891, 261.926 78.726, 261.775 78.210 C 261.439 77.063, 275.168 63.477, 276.324 63.811 C 276.778 63.942, 276.937 63.701, 276.679 63.275 C 276.023 62.191, 278.617 59.967, 279.554 60.810 C 279.976 61.190, 279.997 60.938, 279.601 60.250 C 279.206 59.563, 279.322 59, 279.860 59 C 280.398 59, 282.302 57.447, 284.093 55.549 C 285.883 53.650, 287.790 52.370, 288.329 52.703 C 288.868 53.036, 289.010 52.826, 288.645 52.235 C 288.280 51.644, 289.123 50.262, 290.518 49.165 C 292.413 47.674, 293.072 46.199, 293.123 43.335 C 293.225 37.571, 293.893 36.036, 297.161 34.048 C 298.801 33.051, 300.120 31.967, 300.091 31.639 C 299.988 30.443, 309.707 22.040, 310.396 22.729 C 310.786 23.120, 310.809 22.665, 310.446 21.720 C 309.612 19.546, 310.731 18.751, 301.259 28.250 M 318.993 26.508 C 317.737 27.845, 316.255 28.658, 315.700 28.315 C 315.145 27.972, 314.983 28.163, 315.340 28.741 C 315.697 29.318, 312.729 32.798, 308.744 36.473 L 301.500 43.156 305.249 46.174 C 307.312 47.835, 308.741 49.611, 308.425 50.121 C 308.110 50.632, 308.447 50.926, 309.176 50.775 C 309.904 50.624, 310.376 51.096, 310.225 51.824 C 310.059 52.626, 310.422 52.857, 311.145 52.410 C 311.952 51.911, 312.139 52.195, 311.721 53.285 C 311.265 54.472, 311.528 54.735, 312.715 54.279 C 313.876 53.834, 314.099 54.031, 313.510 54.985 C 312.992 55.822, 313.080 56.069, 313.747 55.656 C 314.613 55.121, 322.002 61.281, 321.617 62.217 C 321.553 62.372, 321.692 62.383, 321.926 62.241 C 323.525 61.268, 326.846 66.392, 325.333 67.499 C 323.920 68.532, 324.021 68.663, 326.104 68.503 C 328.832 68.292, 332 69.946, 332 71.580 C 332 72.184, 333.135 73.196, 334.522 73.828 C 336.507 74.733, 336.943 75.528, 336.573 77.568 C 336.204 79.608, 336.380 79.930, 337.403 79.081 C 338.118 78.487, 339.862 77.906, 341.279 77.789 C 342.696 77.672, 343.680 77.291, 343.465 76.943 C 343.249 76.594, 346.613 73.046, 350.939 69.056 C 357.846 62.688, 362.094 56.259, 358.479 57.646 C 357.814 57.901, 356.114 56.735, 354.700 55.055 C 353.286 53.375, 351.907 52, 351.635 52 C 350.576 52, 339.516 39.689, 339.775 38.798 C 339.926 38.277, 339.598 38.130, 339.046 38.471 C 337.813 39.233, 325.860 28.036, 326.610 26.822 C 326.906 26.343, 326.778 26.057, 326.324 26.188 C 325.871 26.318, 324.550 25.897, 323.388 25.251 C 321.591 24.252, 320.936 24.439, 318.993 26.508 M 312.625 34.319 L 303.750 42.596 321.434 59.548 C 331.161 68.872, 339.429 76.600, 339.809 76.722 C 340.189 76.844, 344.516 73.160, 349.424 68.535 L 358.349 60.127 346.424 48.762 C 325.101 28.440, 322.507 26.027, 322 26.034 C 321.725 26.038, 317.506 29.766, 312.625 34.319 M 344 30.443 C 344 30.687, 346.475 33.228, 349.500 36.088 C 352.525 38.949, 355 41.926, 355 42.704 C 355 43.482, 355.377 43.885, 355.838 43.600 C 357.500 42.573, 365.775 51.357, 365.537 53.896 C 365.333 56.073, 365.430 56.133, 366.591 54.545 C 368.720 51.633, 370.458 59.681, 368.635 64.016 C 367.713 66.210, 367.064 66.826, 366.660 65.892 C 366.185 64.792, 366.099 64.815, 366.251 66 C 366.471 67.711, 361.850 73, 360.135 73 C 359.511 73, 359 73.482, 359 74.071 C 359 75.256, 356.531 78, 355.465 78 C 355.093 78, 353.903 79.125, 352.821 80.500 C 351.740 81.875, 349.961 83, 348.868 83 C 347.776 83, 347.104 83.359, 347.375 83.798 C 348.511 85.636, 345.942 87.180, 340.524 87.916 C 336.815 88.419, 334.417 89.290, 333.824 90.350 C 333.316 91.257, 332.221 92, 331.391 92 C 330.561 92, 330.128 92.397, 330.428 92.883 C 330.982 93.780, 320.200 104, 318.699 104 C 318.250 104, 318.160 104.450, 318.500 105 C 319.335 106.350, 316.678 106.278, 315.313 104.913 C 314.530 104.130, 314.011 104.173, 313.458 105.067 C 312.981 105.840, 313.101 106.055, 313.776 105.638 C 314.373 105.269, 315.144 105.425, 315.490 105.984 C 315.835 106.543, 315.641 107, 315.059 107 C 314.477 107, 314.112 107.563, 314.250 108.250 C 314.387 108.938, 313.937 109.387, 313.250 109.250 C 312.562 109.112, 312.112 109.436, 312.250 109.969 C 312.508 110.970, 306.081 116.993, 304.750 116.998 C 304.337 116.999, 304 117.482, 304 118.071 C 304 120.263, 301.367 121.956, 299.934 120.686 C 299.038 119.892, 299.076 120.140, 300.048 121.437 C 301.362 123.191, 301.329 123.310, 299.698 122.699 C 298.616 122.293, 298.140 122.418, 298.507 123.011 C 298.843 123.555, 298.566 124, 297.892 124 C 297.218 124, 296.964 124.297, 297.327 124.660 C 297.943 125.276, 294.418 128.323, 292.750 128.618 C 292.337 128.690, 291.663 128.860, 291.250 128.993 C 290.837 129.127, 290.129 129.172, 289.676 129.094 C 289.222 129.015, 289.141 129.419, 289.495 129.992 C 289.849 130.564, 290.670 130.728, 291.319 130.356 C 291.969 129.984, 290.374 131.810, 287.775 134.414 C 284.933 137.262, 282.580 138.858, 281.870 138.420 C 281.164 137.983, 280.956 138.120, 281.353 138.761 C 282.216 140.158, 276.158 146.216, 274.761 145.353 C 274.170 144.987, 273.979 145.157, 274.334 145.732 C 275.135 147.028, 272.617 149.256, 271.498 148.241 C 271.048 147.834, 270.960 147.994, 271.304 148.597 C 272.091 149.978, 266.660 155.299, 265.520 154.264 C 265.058 153.844, 264.978 154.021, 265.342 154.659 C 266.172 156.109, 260.223 161.256, 258.761 160.352 C 258.126 159.960, 257.983 160.163, 258.409 160.853 C 258.810 161.502, 258.440 162.278, 257.569 162.612 C 256.712 162.941, 256.233 163.568, 256.504 164.007 C 257.603 165.785, 249.874 169, 244.502 169 C 241.541 169, 238.803 169.509, 238.419 170.132 C 237.677 171.331, 250.352 170.457, 252.639 169.151 C 254.091 168.321, 263.480 159.631, 277.530 146.113 C 334.262 91.527, 335.989 89.975, 340.632 89.399 C 345.976 88.736, 349.221 86.390, 360.500 75.032 L 370.500 64.962 370.500 59.917 L 370.500 54.872 357.772 42.436 C 346.061 30.994, 344 29.199, 344 30.443 M 54.116 32.944 C 42.492 37.265, 31.006 49.568, 31.001 57.702 C 31 58.363, 29.027 60.262, 26.615 61.921 C 21.227 65.628, 17.715 69.720, 14.195 76.393 L 11.500 81.500 11.231 180.721 C 10.930 291.894, 10.544 285.500, 18.150 295.408 C 28.858 309.356, 32.951 310.422, 77.254 310.800 L 114.007 311.113 115.421 313.806 C 120.001 322.530, 131.515 328.935, 144 329.706 C 154.236 330.338, 165.121 327.788, 162.667 325.333 C 162.240 324.907, 161.473 325.220, 160.961 326.029 C 160.449 326.838, 160.024 327.107, 160.015 326.628 C 160.007 326.148, 159.437 326.210, 158.750 326.766 C 155.453 329.431, 134.775 329.334, 135.282 326.655 C 135.402 326.020, 134.375 325.491, 133 325.479 C 129.525 325.450, 124.822 322.906, 125.410 321.373 C 125.709 320.594, 125.352 320.312, 124.487 320.643 C 123.207 321.135, 118 316.639, 118 315.043 C 118 310.371, 115.424 310, 83.002 310 C 46.301 310, 30 308.099, 30 303.820 C 30 303.186, 29.727 302.940, 29.393 303.273 C 28.524 304.142, 26.101 301.679, 26.759 300.595 C 27.062 300.098, 26.810 299.999, 26.201 300.376 C 23.721 301.909, 16.429 292.763, 13.942 285 C 12.726 281.206, 12.500 264.971, 12.500 181.500 L 12.500 82.500 14.683 77.823 C 15.884 75.251, 18.471 71.445, 20.433 69.365 C 22.395 67.285, 24 65.276, 24 64.900 C 24 64.524, 25.125 63.934, 26.500 63.589 C 27.875 63.244, 29 62.494, 29 61.922 C 29 61.350, 29.563 61.206, 30.250 61.601 C 30.938 61.997, 31.199 61.985, 30.832 61.576 C 30.465 61.166, 30.873 60.003, 31.739 58.992 C 32.606 57.980, 33.442 55.954, 33.598 54.491 C 33.973 50.973, 36.797 46.757, 38.198 47.623 C 38.885 48.047, 39.026 47.852, 38.568 47.111 C 37.727 45.750, 39.796 42.756, 41.044 43.527 C 41.494 43.805, 42.144 43.575, 42.490 43.016 C 42.835 42.457, 42.615 42, 42 42 C 41.385 42, 41.179 41.520, 41.541 40.933 C 41.904 40.347, 42.428 40.095, 42.707 40.373 C 42.985 40.652, 44.073 40.079, 45.123 39.100 C 47.480 36.904, 51.384 34.976, 57 33.232 C 60.427 32.169, 77 32.600, 78.183 33.783 C 78.853 34.453, 80.435 35, 81.700 35 C 82.965 35, 84 35.450, 84 36 C 84 36.550, 84.659 37, 85.465 37 C 86.270 37, 87.418 37.913, 88.015 39.028 C 88.612 40.143, 89.415 40.866, 89.800 40.633 C 90.185 40.400, 91.080 40.838, 91.789 41.605 C 92.499 42.372, 92.724 43.018, 92.289 43.040 C 91.855 43.062, 92.737 43.751, 94.250 44.572 C 96.681 45.891, 97.556 47.661, 97.094 50.324 C 97.015 50.778, 97.364 50.893, 97.869 50.581 C 98.374 50.269, 99.068 51.136, 99.412 52.507 C 99.757 53.878, 100.470 55, 100.998 55 C 103.435 55, 96.546 44.010, 91.390 39.674 C 81.769 31.581, 65.622 28.666, 54.116 32.944 M 182 45.941 C 182 47.559, 182.356 49.102, 182.791 49.371 C 183.226 49.640, 183.402 48.316, 183.182 46.430 C 182.691 42.227, 182 41.941, 182 45.941 M 261.009 56.489 C 260.329 57.308, 259.305 57.688, 258.732 57.334 C 258.160 56.981, 257.982 57.162, 258.338 57.738 C 258.694 58.314, 257.325 60.399, 255.296 62.370 L 251.606 65.953 217.354 65.727 C 184.480 65.509, 183.082 65.576, 182.607 67.394 C 182.235 68.816, 182.397 69.003, 183.256 68.144 C 184.069 67.331, 194.129 67, 218.063 67 L 251.727 67 258.113 61.044 C 261.626 57.769, 263.993 55.069, 263.372 55.044 C 262.752 55.020, 261.689 55.670, 261.009 56.489 M 297 57.059 C 297 57.641, 296.582 57.860, 296.072 57.544 C 295.562 57.229, 294.846 57.910, 294.482 59.058 C 294.033 60.471, 293.294 60.943, 292.190 60.519 C 291.294 60.176, 290.893 60.226, 291.298 60.631 C 292.274 61.607, 286.032 68, 284.104 68 C 282.926 68, 282.863 68.263, 283.812 69.212 C 284.760 70.160, 286.490 68.968, 291.787 63.712 C 300.219 55.344, 298.206 54.810, 313.500 69.476 L 326.500 81.942 317 91.126 C 306.590 101.191, 275.303 131.083, 265 140.808 C 258.134 147.289, 256 148.280, 256 144.986 C 256 139.372, 246.882 129, 238.377 124.941 C 230.050 120.967, 227.267 124.894, 261.011 93 C 286.801 68.624, 284.993 70.595, 282.460 69.623 C 281.533 69.267, 281.030 69.523, 281.198 70.266 C 281.563 71.885, 270.409 83, 268.419 83 C 267.574 83, 267.121 83.387, 267.413 83.859 C 268.188 85.113, 262.679 89.710, 260.960 89.244 C 259.701 88.902, 259.703 88.989, 260.976 89.873 C 262.202 90.724, 262.033 91.065, 259.976 91.885 C 258.614 92.429, 257.906 92.902, 258.403 92.937 C 259.466 93.011, 255.060 97, 253.914 97 C 253.486 97, 252.839 97.933, 252.477 99.072 C 252.069 100.359, 251.265 100.932, 250.358 100.584 C 249.554 100.275, 249.126 100.395, 249.407 100.849 C 250.122 102.007, 242.546 109.213, 241.604 108.270 C 241.180 107.847, 240.964 107.950, 241.123 108.500 C 241.467 109.689, 234.972 117.101, 234.073 116.545 C 233.731 116.334, 232.443 117.913, 231.211 120.055 C 229.340 123.305, 229.247 123.842, 230.649 123.304 C 231.572 122.950, 232.074 123.074, 231.762 123.580 C 231.451 124.086, 232.435 124.545, 233.949 124.599 C 240.233 124.825, 251.086 135.248, 254.411 144.250 C 256.416 149.678, 257.315 149.988, 260.917 146.494 C 276.232 131.634, 281.329 127.086, 282.118 127.573 C 282.631 127.890, 282.926 127.736, 282.775 127.231 C 282.624 126.726, 286.212 122.557, 290.750 117.967 C 295.288 113.376, 299 109.948, 299 110.349 C 299 110.751, 299.628 110.499, 300.395 109.789 C 301.162 109.080, 301.636 108.244, 301.449 107.932 C 301.261 107.620, 302.023 106.720, 303.142 105.932 C 304.261 105.144, 307.692 102.025, 310.767 99 C 313.842 95.975, 316.728 93.612, 317.179 93.750 C 317.631 93.887, 318 93.377, 318 92.615 C 318 91.356, 322.565 87.588, 324.167 87.526 C 324.533 87.512, 325.208 87.090, 325.667 86.590 C 326.151 86.061, 325.976 85.981, 325.250 86.399 C 323.171 87.595, 323.848 85.944, 326.226 84.018 L 328.453 82.215 324.296 77.705 C 322.009 75.224, 319.811 73.489, 319.410 73.847 C 319.009 74.206, 318.955 73.735, 319.290 72.801 C 319.676 71.721, 319.461 71.260, 318.699 71.535 C 318.040 71.773, 313.900 68.375, 309.500 63.984 C 302.097 56.596, 297 53.773, 297 57.059 M 103 150.845 L 103.500 237.500 103.755 152.250 L 104.011 67 107.256 66.898 L 110.500 66.795 107.413 66.057 C 105.715 65.651, 103.915 65.065, 103.413 64.755 C 102.864 64.416, 102.699 98.716, 103 150.845 M 383 67.860 C 383 68.334, 381.852 70.412, 380.450 72.479 C 377.726 76.492, 377.566 79.080, 380 79.743 C 381.333 80.107, 381.333 80.034, 380 79.091 C 378.667 78.148, 378.667 78.027, 380 78 C 381.315 77.973, 381.318 77.854, 380.026 77.037 C 378.769 76.243, 378.860 75.766, 380.640 73.803 C 381.788 72.536, 383.192 70.626, 383.761 69.557 C 385.026 67.182, 389.233 73.011, 388.324 75.881 C 387.929 77.130, 388.030 77.195, 388.767 76.165 C 389.506 75.134, 389.858 75.350, 390.322 77.122 C 390.651 78.382, 391.200 79.133, 391.541 78.792 C 392.288 78.045, 390.622 74.669, 387.324 70.250 C 385.002 67.140, 383 66.033, 383 67.860 M 25.734 78.931 C 24.118 81.806, 23.047 85.166, 23.116 87.147 C 23.183 89.077, 23.414 89.651, 23.661 88.500 C 24.691 83.692, 27.295 77.934, 28.831 77.067 C 29.965 76.427, 30.174 75.795, 29.484 75.096 C 28.792 74.396, 27.596 75.619, 25.734 78.931 M 392.791 85 C 393.845 93.176, 393.662 279.142, 392.597 281.500 C 392.100 282.600, 391.650 283.950, 391.597 284.500 C 391.270 287.883, 386.691 294.988, 385.483 293.986 C 384.537 293.201, 383.973 293.234, 383.435 294.106 C 382.963 294.869, 383.114 295.048, 383.845 294.595 C 385.690 293.455, 385.124 296.272, 382.995 298.826 C 381.872 300.173, 380.558 300.845, 379.873 300.422 C 379.131 299.963, 378.956 300.120, 379.405 300.845 C 379.827 301.530, 379.483 302, 378.559 302 C 377.702 302, 377 302.410, 377 302.911 C 377 309.154, 363.217 310.037, 266.708 309.978 L 179.500 309.925 177.657 312.213 C 176.643 313.471, 174.474 316.155, 172.836 318.177 C 171.199 320.199, 168.541 322.313, 166.930 322.875 C 165.318 323.436, 164 324.381, 164 324.974 C 164 327.165, 169.964 322.907, 175.156 317.009 L 180.445 311 269.673 311 C 331.930 311, 360.503 310.660, 364.201 309.876 C 379.660 306.595, 391.233 294.927, 394.029 279.801 C 395.589 271.362, 394.892 84.148, 393.291 81.500 C 392.294 79.852, 392.206 80.469, 392.791 85 M 380.679 83.500 C 382.657 90.729, 381.641 280.216, 379.603 284.320 C 376.282 291.006, 369.946 296.129, 362.500 298.148 C 360.212 298.769, 360.562 298.836, 363.974 298.433 C 366.435 298.143, 369.170 297.251, 370.053 296.452 C 370.935 295.654, 372.020 295, 372.462 295 C 373.566 295, 377.798 290.098, 379.584 286.750 C 380.391 285.238, 381.481 284, 382.007 284 C 383.632 284, 382.811 83.406, 381.179 81.800 C 380.087 80.725, 380.001 81.020, 380.679 83.500 M 230.166 109.876 C 229.068 110.572, 229.083 110.818, 230.249 111.265 C 231.058 111.576, 231.667 111.206, 231.667 110.405 C 231.667 109.632, 231.629 109.007, 231.583 109.015 C 231.537 109.024, 230.900 109.411, 230.166 109.876 M 220.082 132.655 C 218.660 133.651, 218.033 135.125, 218.103 137.307 L 218.207 140.500 219.203 136.750 C 221.556 127.889, 240.592 137.230, 244.110 148.973 C 247.460 160.155, 239.092 163.161, 229.600 154.183 C 226.731 151.470, 222.978 148.523, 221.259 147.634 C 219.168 146.553, 217.996 145.105, 217.717 143.259 C 217.369 140.959, 217.275 141.106, 217.150 144.142 C 217.025 147.184, 217.384 147.880, 219.334 148.369 C 223.167 149.331, 229.083 154.517, 227.805 155.795 C 227.014 156.586, 227.308 156.732, 228.871 156.324 C 230.631 155.863, 230.903 156.089, 230.345 157.544 C 229.895 158.716, 230.038 159.095, 230.761 158.648 C 231.366 158.274, 232.144 158.425, 232.490 158.984 C 234.230 161.800, 247 159.389, 247 156.244 C 247 153.253, 243.186 143.277, 241.335 141.425 C 240.051 140.141, 239 138.651, 239 138.113 C 239 137.575, 237.988 136.819, 236.750 136.433 C 235.512 136.046, 234.275 135.424, 234 135.049 C 232.492 132.995, 222.139 131.214, 220.082 132.655 M 204.300 160 C 204.300 163.025, 204.487 164.262, 204.716 162.750 C 204.945 161.238, 204.945 158.762, 204.716 157.250 C 204.487 155.738, 204.300 156.975, 204.300 160 M 205 166.741 C 205 170.054, 214.064 174.069, 219.803 173.300 C 226.040 172.463, 224.885 171.450, 218.130 171.832 C 212.728 172.138, 211.966 171.909, 208.629 168.979 C 206.633 167.226, 205 166.220, 205 166.741 M 230 171 L 225.500 171.700 230.250 171.850 C 232.863 171.932, 235 171.550, 235 171 C 235 170.450, 234.887 170.068, 234.750 170.150 C 234.613 170.233, 232.475 170.615, 230 171 M 55.286 213.545 C 47.819 217.266, 41.979 224.424, 42.010 229.815 C 42.015 230.742, 43.083 229.250, 44.383 226.500 C 47.355 220.213, 51.350 216.433, 57.480 214.106 C 60.116 213.105, 61.825 212.010, 61.277 211.671 C 60.729 211.333, 58.033 212.176, 55.286 213.545 M 65 211.957 C 65 212.457, 65.930 213.160, 67.066 213.521 C 79.531 217.477, 81.121 235.191, 69.357 239.054 L 66.500 239.992 69.500 239.432 C 71.150 239.123, 73.254 238.804, 74.177 238.721 C 75.099 238.639, 75.664 238.265, 75.432 237.890 C 74.837 236.927, 77.946 235.877, 79.340 236.571 C 79.978 236.888, 79.745 236.527, 78.822 235.767 C 77.675 234.822, 77.433 233.928, 78.057 232.942 C 80.432 229.189, 78.173 221.256, 73.269 216.124 C 70.281 212.998, 65 210.336, 65 211.957 M 183.195 213.500 C 183.215 215.150, 183.439 215.704, 183.693 214.731 C 183.947 213.758, 183.930 212.408, 183.656 211.731 C 183.382 211.054, 183.175 211.850, 183.195 213.500 M 58.294 220.201 C 50.606 223.914, 48.352 236.914, 54.234 243.614 C 64.911 255.774, 83.187 250.585, 89.151 233.699 L 90.987 228.500 90.726 236.218 C 90.458 244.120, 91.731 245.426, 92.695 238.238 C 93.320 233.580, 91.556 227.333, 89.616 227.333 C 88.880 227.333, 88.286 227.821, 88.296 228.417 C 88.398 234.308, 87.926 235.913, 86.250 235.374 C 84.906 234.942, 84.817 235.038, 85.867 235.787 C 87.491 236.946, 83.618 243, 81.253 243 C 80.499 243, 80.167 243.461, 80.515 244.024 C 81.786 246.080, 72.071 249.287, 66.355 248.697 C 61.208 248.166, 56.500 245.933, 56.500 244.024 C 56.500 243.508, 55.683 242.488, 54.684 241.758 C 52.343 240.047, 51.433 233.247, 52.935 228.696 C 55.306 221.512, 65.752 217.493, 67.526 223.081 C 68.210 225.239, 66.312 229.311, 65 228.500 C 63.860 227.796, 61.707 231.710, 62.356 233.305 C 62.650 234.028, 62.873 233.883, 62.921 232.938 C 62.964 232.079, 64.350 230.378, 66 229.158 C 72.914 224.047, 66.285 216.341, 58.294 220.201 M 41.232 235 C 41.232 236.925, 41.438 237.713, 41.689 236.750 C 41.941 235.787, 41.941 234.213, 41.689 233.250 C 41.438 232.287, 41.232 233.075, 41.232 235 M 30.508 240 C 35.569 277.925, 98.422 280.112, 102.330 242.500 C 102.559 240.300, 102.540 239.400, 102.288 240.500 C 102.037 241.600, 101.419 242.928, 100.915 243.450 C 100.412 243.973, 100 245.029, 100 245.799 C 100 250.365, 92.502 260.076, 86.750 262.959 C 85.237 263.718, 84 264.767, 84 265.291 C 84 265.816, 83.315 265.676, 82.477 264.981 C 81.221 263.939, 81.053 263.976, 81.520 265.192 C 82.101 266.706, 81.128 267.040, 75.666 267.197 C 73.719 267.253, 73.250 267.543, 74.166 268.124 C 74.957 268.625, 72.216 268.976, 67.428 268.985 C 58.761 269.001, 51.609 267.148, 48.245 264.013 C 47.127 262.972, 45.976 262.357, 45.687 262.646 C 45.398 262.935, 44.673 262.257, 44.074 261.139 C 43.201 259.507, 43.333 258.905, 44.743 258.084 C 45.710 257.521, 45.964 257.047, 45.309 257.030 C 44.654 257.014, 43.840 257.450, 43.500 258 C 43.160 258.550, 42.403 259, 41.819 259 C 41.185 259, 41.310 258.293, 42.128 257.250 C 43.376 255.659, 43.339 255.626, 41.726 256.893 C 40.750 257.658, 39.833 258.108, 39.689 257.893 C 39.545 257.677, 38.224 255.700, 36.754 253.500 C 35.284 251.300, 33.353 246.352, 32.462 242.505 C 30.462 233.864, 29.530 232.670, 30.508 240 M 61.554 236.720 C 61.223 237.582, 61.189 238.522, 61.476 238.810 C 61.764 239.098, 62 238.753, 62 238.044 C 62 237.003, 62.293 236.998, 63.524 238.020 C 65.695 239.821, 66.015 238.832, 63.911 236.827 C 62.337 235.329, 62.092 235.318, 61.554 236.720 M 183.195 237.500 C 183.215 239.150, 183.439 239.704, 183.693 238.731 C 183.947 237.758, 183.930 236.408, 183.656 235.731 C 183.382 235.054, 183.175 235.850, 183.195 237.500 M 42.304 242 C 42.784 245.343, 45.090 250, 46.268 250 C 46.788 250, 46.917 250.774, 46.554 251.720 C 46.191 252.665, 46.206 253.127, 46.587 252.746 C 46.968 252.365, 48.904 253.335, 50.890 254.900 C 52.875 256.466, 56.075 258.051, 58 258.423 C 61.358 259.071, 61.318 259.013, 57 256.990 C 50.929 254.146, 47.220 250.485, 44.347 244.500 C 42.873 241.430, 42.084 240.465, 42.304 242 M 86.290 249.443 C 84.229 252.247, 81.189 254.724, 77.790 256.368 C 72.591 258.883, 72.378 259.947, 77.461 258.015 C 79.885 257.093, 81.053 256.301, 84.416 253.298 C 85.156 252.636, 86.078 252.411, 86.464 252.798 C 86.851 253.184, 87.034 253.050, 86.871 252.500 C 86.408 250.935, 88.992 246.877, 90.039 247.524 C 90.555 247.843, 90.709 247.406, 90.382 246.552 C 89.639 244.617, 90.055 244.324, 86.290 249.443 M 64.250 259.716 C 65.763 259.945, 68.237 259.945, 69.750 259.716 C 71.263 259.487, 70.025 259.300, 67 259.300 C 63.975 259.300, 62.737 259.487, 64.250 259.716 M 139.408 271.914 C 136.697 272.786, 133.398 274.269, 132.077 275.208 C 130.755 276.148, 129.392 276.742, 129.047 276.529 C 128.096 275.942, 123.238 284.091, 122.507 287.500 C 121.968 290.015, 122.178 289.841, 123.807 286.421 C 129.101 275.305, 141.230 269.595, 149.056 274.535 C 158.775 280.671, 160.390 293.423, 152 297.784 L 149.500 299.083 151.900 298.791 C 158.257 298.019, 161.978 279, 155.772 279 C 155.230 279, 155.054 278.302, 155.382 277.448 C 155.709 276.594, 155.563 276.152, 155.058 276.464 C 154.552 276.777, 153.878 276.611, 153.560 276.097 C 151.260 272.376, 144.334 270.330, 139.408 271.914 M 23.100 279.027 C 23.045 280.968, 23.701 283.555, 24.557 284.777 C 25.413 286, 25.750 287.007, 25.307 287.015 C 24.863 287.024, 25.073 287.394, 25.773 287.839 C 26.474 288.283, 27.247 289.687, 27.492 290.959 C 27.984 293.514, 29 295.001, 29 293.167 C 29 292.525, 29.466 292, 30.035 292 C 30.732 292, 30.714 292.735, 29.980 294.250 C 29.006 296.260, 29.038 296.316, 30.285 294.777 C 31.606 293.146, 31.786 293.146, 33.641 294.777 C 37.079 297.798, 39.884 299.003, 43.236 298.898 L 46.500 298.795 43.500 298.024 C 32.920 295.304, 26.376 288.985, 24.092 279.282 L 23.201 275.500 23.100 279.027 M 137.841 280.524 C 130.245 284.650, 128.333 296.893, 134.234 303.614 C 143.716 314.413, 162.875 310.455, 168.019 296.636 C 170.691 289.460, 171.013 289.405, 170.711 296.181 C 170.402 303.136, 171.451 304.443, 172.567 298.493 C 173.442 293.828, 171.871 287.599, 169.714 287.183 C 168.308 286.913, 168 287.633, 168 291.186 C 168 295.456, 165.310 298.928, 163.073 297.545 C 162.607 297.257, 161.635 297.805, 160.912 298.761 C 159.904 300.093, 159.897 300.235, 160.883 299.366 C 162.770 297.701, 166.393 298.822, 164.908 300.611 C 164.284 301.363, 163.305 301.688, 162.732 301.334 C 162.155 300.978, 161.987 301.170, 162.355 301.765 C 163.221 303.167, 158.046 307.232, 156.266 306.549 C 155.513 306.259, 155.145 306.425, 155.449 306.917 C 156.260 308.230, 146.502 309.339, 144.337 308.180 C 143.327 307.640, 142.275 307.140, 142 307.070 C 137.612 305.957, 137.182 305.667, 137.664 304.151 C 138.057 302.913, 137.954 302.827, 137.248 303.810 C 135.938 305.634, 132.931 300.903, 132.270 295.978 C 131.480 290.085, 136.173 279.787, 138.901 281.430 C 139.231 281.628, 140.080 281.162, 140.789 280.395 C 142.428 278.622, 141.248 278.674, 137.841 280.524 M 145.826 281.314 C 149.112 284.813, 147.306 289.267, 143 288.282 C 142.725 288.219, 142.440 289.170, 142.368 290.394 C 142.241 292.528, 142.377 292.495, 145.618 289.627 C 149.387 286.289, 149.931 283.152, 147.171 280.655 C 144.406 278.152, 143.344 278.673, 145.826 281.314 M 121.252 295.500 C 121.263 297.700, 121.468 298.482, 121.707 297.238 C 121.946 295.994, 121.937 294.194, 121.687 293.238 C 121.437 292.282, 121.241 293.300, 121.252 295.500 M 140.573 294.765 C 141.163 295.169, 141.936 296.288, 142.292 297.250 C 142.660 298.249, 143.917 298.973, 145.219 298.937 C 147.466 298.874, 147.468 298.860, 145.389 298.020 C 144.228 297.551, 143.005 296.455, 142.670 295.584 C 142.336 294.713, 141.486 294.007, 140.781 294.015 C 139.928 294.026, 139.858 294.276, 140.573 294.765 M 110.097 297.383 C 109.222 298.437, 109.261 298.886, 110.260 299.270 C 111.056 299.575, 111.571 299.032, 111.571 297.886 C 111.571 295.632, 111.555 295.626, 110.097 297.383 M 181.700 298.339 C 181.420 299.069, 181.823 299.667, 182.595 299.667 C 184.170 299.667, 184.474 298.411, 183.105 297.565 C 182.612 297.260, 181.980 297.609, 181.700 298.339 M 122.560 303 C 122.923 304.925, 124.406 308.075, 125.856 310 C 127.306 311.925, 128.371 313.871, 128.222 314.324 C 128.073 314.778, 128.445 314.843, 129.049 314.470 C 129.654 314.096, 131.175 314.755, 132.431 315.935 C 133.686 317.114, 136.465 318.287, 138.607 318.540 C 141.655 318.901, 141.956 318.817, 139.994 318.152 C 132.317 315.552, 127.370 311.172, 124.010 304 C 121.979 299.665, 121.926 299.628, 122.560 303 M 169 304.997 C 169 307.167, 161.223 314.446, 156.500 316.697 L 151.500 319.080 155.500 318.377 C 157.700 317.991, 160.020 317.673, 160.655 317.671 C 161.290 317.669, 161.543 316.955, 161.217 316.083 C 160.687 314.664, 160.826 314.656, 162.563 316 C 164.394 317.418, 164.418 317.394, 163 315.563 C 161.638 313.803, 161.659 313.685, 163.238 314.277 C 164.194 314.635, 164.869 314.585, 164.738 314.167 C 164.407 313.107, 169.653 306.987, 170.321 307.654 C 170.620 307.953, 170.617 307.253, 170.316 306.099 C 169.742 303.905, 169 303.284, 169 304.997 M 144.750 319.706 C 145.988 319.944, 148.012 319.944, 149.250 319.706 C 150.488 319.467, 149.475 319.272, 147 319.272 C 144.525 319.272, 143.512 319.467, 144.750 319.706 M 108.500 355 C 108.840 355.550, 110.891 356, 113.059 356 L 117 356 117.227 385.250 L 117.454 414.500 117.977 385.500 L 118.500 356.500 122.750 356.193 C 130.865 355.605, 126.978 354, 117.441 354 C 111.323 354, 108.104 354.360, 108.500 355 M 288.382 356.348 C 283.329 360.695, 284.325 366.164, 292.966 381.500 C 301.910 397.372, 303.371 404.720, 298.546 409.545 C 293.624 414.466, 287 411.502, 287 404.378 C 287 401.970, 286.550 400, 286 400 C 283.566 400, 284.978 408.132, 287.923 411.077 C 298.197 421.351, 307.026 403.605, 298.906 389 C 285.919 365.637, 284.587 361.494, 288.829 357.655 C 293.434 353.488, 298.912 356.257, 300.069 363.337 L 300.750 367.500 300.875 363.205 C 301.106 355.258, 294.112 351.419, 288.382 356.348 M 355.970 371.250 C 355.935 390.941, 356.293 390.941, 348.366 371.252 C 345.321 363.688, 342.418 357.072, 341.915 356.550 C 341.361 355.975, 341.092 367.422, 341.232 385.550 L 341.465 415.500 341.749 389.750 C 341.926 373.738, 342.406 364, 343.017 364 C 343.558 364, 344 364.146, 344 364.323 C 344 364.501, 346.700 371.257, 350 379.336 C 355.952 393.908, 356 394.104, 356 404.012 C 356 410.004, 356.400 414, 357 414 C 357.644 414, 358 403.333, 358 384 C 358 364.667, 357.644 354, 357 354 C 356.373 354, 355.989 360.437, 355.970 371.250 M 368.455 356.455 C 363.915 360.994, 364.891 366.004, 373.184 380.738 C 383.529 399.114, 383.356 414.436, 372.837 411.639 C 368.666 410.530, 367.618 409.221, 366.977 404.320 C 366.505 400.715, 366.142 399.960, 365.537 401.325 C 362.784 407.537, 370.609 415.647, 376.858 413.059 C 385.527 409.468, 384.816 399.171, 374.601 380.380 C 366.352 365.204, 365.458 361.514, 369.189 358.039 C 373.739 353.799, 380 356.573, 380 362.829 C 380 364.573, 380.450 366, 381 366 C 382.366 366, 382.262 361.361, 380.837 358.684 C 378.059 353.469, 372.450 352.459, 368.455 356.455 M 24.553 356.250 C 24.096 357.732, 24.127 355.503, 24.138 386 C 24.148 414.440, 24.093 413, 25.167 413 C 25.625 413, 26 406.475, 26 398.500 L 26 384 30.800 384 C 37.775 384, 38 384.489, 38 399.641 C 38 407.390, 38.415 413.138, 39 413.500 C 40.806 414.616, 40.279 387.844, 38.443 385.223 C 37.034 383.211, 37.034 382.789, 38.443 380.777 C 42.219 375.387, 39.917 360.157, 34.783 356.561 C 32.108 354.687, 25.099 354.474, 24.553 356.250 M 158 368.300 C 158 377.311, 157.613 381.987, 156.800 382.800 C 155.867 383.733, 155.867 384, 156.800 384 C 157.678 384, 158 387.889, 158 398.500 C 158 407.500, 158.379 413, 159 413 C 159.621 413, 160 407.500, 160 398.500 L 160 384 164.965 384 C 171.591 384, 172 384.983, 172 400.934 C 172 408.978, 172.384 414, 173 414 C 174.692 414, 174.260 389.023, 172.511 385.668 C 171.207 383.169, 171.208 382.499, 172.517 379.968 C 177.870 369.615, 171.752 355, 162.066 355 L 158 355 158 368.300 M 182 368.300 C 182 377.311, 181.613 381.987, 180.800 382.800 C 179.867 383.733, 179.867 384, 180.800 384 C 181.678 384, 182 387.889, 182 398.500 C 182 407.500, 182.379 413, 183 413 C 183.621 413, 184 407.500, 184 398.500 L 184 384 188.965 384 C 195.591 384, 196 384.983, 196 400.934 C 196 408.978, 196.384 414, 197 414 C 198.692 414, 198.260 389.023, 196.511 385.668 C 195.207 383.169, 195.208 382.499, 196.517 379.968 C 201.704 369.937, 195.738 355, 186.545 355 L 182 355 182 368.300 M 266.676 358 C 266.295 359.925, 265.258 366.900, 264.371 373.500 C 261.433 395.364, 260.348 401.516, 259.700 400 C 258.968 398.287, 256.438 378.412, 255.436 366.500 C 255.065 362.100, 254.379 357.825, 253.912 357 C 252.675 354.820, 252.748 356.796, 254.498 372.798 C 255.322 380.334, 256.461 390.775, 257.028 396 C 259.184 415.863, 260.103 417.297, 261.834 403.500 C 262.386 399.100, 264.026 387.248, 265.477 377.162 C 267.837 360.763, 268.627 348.141, 266.676 358 M 7.608 359.654 C 7.278 361.769, 6.325 369.800, 5.490 377.500 C 4.655 385.200, 3.693 392.625, 3.352 394 C 3.010 395.375, 2.597 398.750, 2.435 401.500 C 2.272 404.250, 1.848 408.461, 1.492 410.857 C 1.086 413.594, 1.208 414.989, 1.821 414.611 C 2.357 414.279, 3.117 410.744, 3.509 406.754 C 4.319 398.518, 5.158 396.994, 8.872 397.015 C 13.089 397.040, 13.674 398.021, 14.974 407.250 C 15.652 412.063, 16.438 416, 16.720 416 C 17.390 416, 16.329 405.702, 13.990 389.500 C 12.957 382.350, 11.577 372.225, 10.923 367 C 9.589 356.352, 8.500 353.939, 7.608 359.654 M 75.202 368.500 C 74.965 381.727, 74.654 383.261, 72 384.271 C 70.998 384.653, 71.247 384.868, 72.750 384.921 C 74.968 384.999, 75.003 385.208, 75.208 399.750 L 75.416 414.500 75.958 400 L 76.500 385.500 82.723 385.203 L 88.946 384.906 89.252 399.703 C 89.420 407.841, 89.565 401.450, 89.573 385.500 C 89.583 366.725, 89.397 361.260, 89.044 370 L 88.500 383.500 83.411 383.797 C 76.417 384.204, 76.117 383.603, 75.749 368.435 L 75.435 355.500 75.202 368.500 M 136 368.800 C 136 376.684, 135.582 382.018, 134.913 382.687 C 134.130 383.470, 134.130 383.962, 134.913 384.446 C 135.617 384.881, 136 390.379, 136 400.059 L 136 415 143.500 415 C 147.833 415, 151 414.578, 151 414 C 151 413.450, 148.412 412.993, 145.250 412.985 C 136.741 412.962, 136.896 413.243, 137.219 398.422 L 137.500 385.500 141.750 385.193 C 146.708 384.834, 147.536 383.007, 142.750 382.985 C 137.096 382.958, 136.906 382.492, 137.217 369.420 L 137.500 357.500 144.500 356.927 L 151.500 356.353 143.750 356.177 L 136 356 136 368.800 M 213.559 358.052 C 213.240 359.398, 212.130 368.007, 211.091 377.182 C 210.052 386.358, 208.924 394.314, 208.584 394.863 C 208.245 395.413, 207.798 400.281, 207.592 405.681 C 207.204 415.826, 208.238 415.027, 209.576 404.148 C 210.328 398.036, 211.104 397.039, 215.128 397.015 C 218.829 396.994, 219.682 398.520, 220.473 406.577 C 220.855 410.470, 221.591 414.295, 222.108 415.077 C 223.245 416.800, 222.805 412.669, 218.907 385 C 217.318 373.725, 216.007 363.150, 215.994 361.500 C 215.959 357.172, 214.316 354.847, 213.559 358.052 M 323.500 357.155 C 321.111 358.461, 318.988 360.974, 319.032 362.441 C 319.049 363.024, 319.612 362.786, 320.282 361.913 C 323.484 357.743, 330 357.264, 332.026 361.049 C 332.576 362.077, 333 372.819, 333 385.743 C 333 411.110, 332.728 412.333, 327.094 412.333 C 320.834 412.333, 320.558 411.345, 319.962 386.717 L 319.425 364.500 319.212 386.694 C 318.971 411.914, 319.644 414.333, 326.897 414.333 C 334.149 414.333, 334.500 413.005, 334.500 385.553 L 334.500 361.161 332.076 358.581 C 329.494 355.833, 326.751 355.377, 323.500 357.155 M 26 369.500 L 26 382 30.345 382 C 36.635 382, 38 380.061, 38 371.122 C 38 360.498, 35.750 357, 28.918 357 L 26 357 26 369.500 M 52.656 358.133 C 44.523 362.860, 45.987 410.303, 54.384 414.129 C 59.447 416.436, 67.820 407.958, 65.098 403.281 C 64.229 401.789, 64.056 402.035, 64.030 404.795 C 63.964 411.996, 56.253 415.168, 51.750 409.847 C 48.872 406.446, 49.123 364.319, 52.039 361.189 C 56.414 356.492, 63.472 358.893, 64.284 365.355 C 64.676 368.470, 64.681 368.466, 64.840 364.924 C 65.119 358.697, 58.262 354.874, 52.656 358.133 M 98.667 357.667 C 97.557 358.776, 97.879 412.807, 99 413.500 C 99.658 413.907, 100 404.344, 100 385.559 C 100 369.852, 99.850 357, 99.667 357 C 99.483 357, 99.033 357.300, 98.667 357.667 M 160 369.500 L 160 382 164.345 382 C 170.635 382, 172 380.061, 172 371.122 C 172 360.498, 169.750 357, 162.918 357 L 160 357 160 369.500 M 184 369.500 L 184 382 188.345 382 C 194.703 382, 196 380.094, 196 370.748 C 196 361.390, 193.257 357, 187.411 357 L 184 357 184 369.500 M 276.618 357.809 C 275.688 359.314, 276.076 411.506, 277.029 413.013 C 277.629 413.962, 277.975 404.094, 277.985 385.750 C 277.999 358.677, 277.859 355.802, 276.618 357.809 M 309.441 385.500 C 309.442 401.450, 309.580 407.835, 309.748 399.689 C 309.916 391.543, 309.916 378.493, 309.747 370.689 C 309.579 362.885, 309.441 369.550, 309.441 385.500 M 8 368.928 C 8 369.438, 7.584 373.150, 7.075 377.178 C 6.566 381.205, 5.887 387.087, 5.566 390.250 L 4.983 396 8.991 396 C 11.438 396, 13 395.533, 13 394.802 C 13 390.504, 9.493 368, 8.823 368 C 8.370 368, 8 368.417, 8 368.928 M 213.699 370.065 C 212.917 373.177, 211.019 389.535, 211.008 393.250 C 211.001 395.719, 211.352 396, 214.441 396 C 219.018 396, 218.978 396.183, 217.284 383 C 215.542 369.431, 214.658 366.243, 213.699 370.065" stroke="none" fill="#145e58" fill-rule="evenodd"/></svg>